<svg width="164" height="38" viewBox="0 0 164 38" fill="none" xmlns="http://www.w3.org/2000/svg">
<g filter="url(#filter0_dd_0_1)">
<path d="M27 2.1H11C6.63693 2.1 3.09998 5.63695 3.09998 10V26C3.09998 30.363 6.63693 33.9 11 33.9H27C31.363 33.9 34.9 30.363 34.9 26V10C34.9 5.63695 31.363 2.1 27 2.1Z" fill="white"/>
<path d="M27 2.1H11C6.63693 2.1 3.09998 5.63695 3.09998 10V26C3.09998 30.363 6.63693 33.9 11 33.9H27C31.363 33.9 34.9 30.363 34.9 26V10C34.9 5.63695 31.363 2.1 27 2.1Z" fill="url(#paint0_linear_0_1)"/>
<path d="M27 2.1H11C6.63693 2.1 3.09998 5.63695 3.09998 10V26C3.09998 30.363 6.63693 33.9 11 33.9H27C31.363 33.9 34.9 30.363 34.9 26V10C34.9 5.63695 31.363 2.1 27 2.1Z" stroke="#D0D5DD" stroke-width="0.2"/>
<path d="M18.3546 13.1827C22.7105 11.4503 27.4742 12.8184 29.6373 14.9132C30.106 15.3671 30.5041 15.8275 30.845 16.2851C31.0394 15.2107 31.0552 14.1405 30.8681 13.1055C30.1847 9.32646 26.6195 7.18558 23.4233 8.29146C20.2415 9.39237 19.0005 11.5321 19.0005 11.5321C19.0005 11.5321 17.7595 9.39237 14.5777 8.29146C11.3812 7.18558 7.81603 9.32669 7.1328 13.1055C6.62842 15.8944 7.58356 18.9391 9.61033 21.6298C10.0372 21.7732 10.4847 21.8809 10.9586 21.943C13.7978 22.3163 14.8184 21.557 16.0178 21.0486C16.8142 20.7112 17.4134 21.0942 17.3843 21.3626C17.3392 21.7786 15.7693 22.4895 16.106 22.6388C17.4351 23.2284 19.0718 23.2334 20.3053 22.18C21.838 20.8712 22.4114 21.7658 22.4114 21.7658C22.4114 21.7658 21.6502 23.7076 19.3581 24.6717C17.4457 25.4761 15.4419 25.6743 13.6107 25.4683C15.19 26.5846 17.0035 27.5204 19.0005 28.1882C24.7099 26.2784 28.9276 22.1871 30.4145 17.9096C29.4072 16.9157 28.1716 16.2995 26.6988 16.0763C23.8674 15.647 22.8322 16.3862 21.6228 16.8708C20.8198 17.1926 20.2285 16.7978 20.263 16.5299C20.3161 16.1148 21.8999 15.4351 21.5661 15.279C20.249 14.6633 18.6125 14.626 17.3585 15.6548C15.8003 16.9332 15.2446 16.0274 15.2446 16.0274C15.2446 16.0274 16.0438 14.1015 18.3546 13.1827ZM17.2709 18.5051H18.3709V17.4052H19.6296V18.5051H20.7296V19.7639H19.6296V20.8638H18.3709V19.7639H17.2709V18.5051Z" fill="url(#paint1_linear_0_1)"/>
<path d="M17.2709 18.5052H18.3709V17.4052H19.6296V18.5052H20.7295V19.7639H19.6378C21.2597 20.5834 24.2383 21.8027 27.8177 22.3451C28.9956 20.9517 29.8813 19.4428 30.4143 17.9096C29.4069 16.9157 28.1713 16.2996 26.6986 16.0763C23.8672 15.647 22.8319 16.3863 21.6226 16.8708C20.8196 17.1926 20.2282 16.7978 20.2627 16.5299C20.3159 16.1148 21.8997 15.4351 21.5659 15.279C20.2488 14.6633 18.6123 14.626 17.3583 15.6548C15.8 16.9332 15.2443 16.0274 15.2443 16.0274C15.2443 16.0274 16.0438 14.1013 18.3543 13.1823C22.7102 11.4499 27.4739 12.818 29.637 14.9128C30.1057 15.3666 30.5038 15.8271 30.8447 16.2847C31.0392 15.2102 31.055 14.14 30.8679 13.105C30.1844 9.326 26.6192 7.18512 23.423 8.291C20.2412 9.39191 19.0002 11.5316 19.0002 11.5316C19.0002 11.5316 17.7592 9.39191 14.5774 8.291C12.7519 7.65927 10.8067 8.0883 9.34619 9.27521C10.0323 10.7442 10.836 12.1168 13.1254 14.8773C14.9868 17.1222 17.2709 18.5052 17.2709 18.5052Z" fill="url(#paint2_linear_0_1)"/>
<path opacity="0.31" d="M27.277 9.64942C24.2712 8.13932 21.169 10.489 20.1851 11.7298C21.882 11.3724 23.3668 11.189 25.2457 11.5838C28.0252 12.1678 29.0654 13.1714 30.3064 14.6541C30.0871 11.9068 28.3519 10.1895 27.277 9.64942Z" fill="url(#paint3_linear_0_1)"/>
</g>
<path d="M52.3936 29V28.3806C53.2716 28.3462 53.9252 28.2774 54.3544 28.1742C54.8032 28.0538 55.0958 27.8387 55.2324 27.529C55.3885 27.2194 55.4666 26.7634 55.4666 26.1613V13.5677C55.4666 12.9484 55.3885 12.4925 55.2324 12.2C55.0958 11.8903 54.8032 11.6753 54.3544 11.5548C53.9252 11.4344 53.2716 11.3656 52.3936 11.3484V10.729C52.7838 10.7462 53.3496 10.7634 54.091 10.7806C54.8324 10.7806 55.7104 10.7806 56.725 10.7806C57.7591 10.7806 58.7054 10.772 59.5639 10.7548C60.4419 10.7376 61.076 10.729 61.4662 10.729C63.5344 10.729 65.144 11.0989 66.2952 11.8387C67.4659 12.5613 68.0512 13.585 68.0512 14.9097C68.0512 16.0452 67.5634 17 66.5879 17.7742C65.6318 18.5484 64.2953 19.0817 62.5783 19.3742V19.4C64.9197 19.5548 66.6854 20.0194 67.8756 20.7936C69.0658 21.5505 69.6609 22.6 69.6609 23.9419C69.6609 25.4903 68.9877 26.7204 67.6415 27.6323C66.2952 28.5441 64.4612 29 62.1393 29C61.8272 29 61.4077 28.9914 60.8809 28.9742C60.3736 28.957 59.7785 28.9484 59.0956 28.9484C58.4127 28.9312 57.642 28.9226 56.7835 28.9226C55.7299 28.9226 54.8227 28.9312 54.0618 28.9484C53.3203 28.9484 52.7643 28.9656 52.3936 29ZM60.7931 28.329C62.6857 28.329 64.11 27.9591 65.066 27.2194C66.022 26.4624 66.5001 25.3355 66.5001 23.8387C66.5001 22.4968 66.0513 21.4903 65.1538 20.8194C64.2563 20.1484 62.9003 19.8129 61.0857 19.8129H57.8079V19.2194H60.5297C62.0125 19.2194 63.1344 18.8839 63.8953 18.2129C64.6563 17.5247 65.0367 16.5183 65.0367 15.1936C65.0367 13.886 64.6855 12.9226 63.9831 12.3032C63.2807 11.6667 62.1979 11.3484 60.7345 11.3484L58.4225 11.3742V26.1613C58.4225 26.7634 58.481 27.2194 58.5981 27.529C58.7151 27.8387 58.9395 28.0538 59.2712 28.1742C59.6224 28.2774 60.1297 28.329 60.7931 28.329Z" fill="white"/>
<path d="M72.2926 29V28.3806C73.3657 28.3462 74.1169 28.2086 74.5461 27.9677C74.9949 27.7097 75.2192 27.228 75.2192 26.5226V18.6C75.2192 17.8258 75.0046 17.2667 74.5754 16.9226C74.1656 16.5785 73.4047 16.3806 72.2926 16.329V15.7097C72.6633 15.7269 73.034 15.7441 73.4047 15.7613C73.7949 15.7785 74.1754 15.7871 74.5461 15.7871C75.2095 15.7871 75.8338 15.7613 76.4192 15.7097C77.024 15.6409 77.5703 15.5462 78.0581 15.4258V26.5226C78.0581 27.228 78.2727 27.7097 78.702 27.9677C79.1312 28.2086 79.8824 28.3462 80.9555 28.3806V29C80.6823 28.9828 80.3116 28.9742 79.8434 28.9742C79.3751 28.957 78.8581 28.9398 78.2922 28.9226C77.7264 28.9054 77.1703 28.8968 76.624 28.8968C75.8046 28.8968 74.9753 28.914 74.1364 28.9484C73.3169 28.9656 72.7023 28.9828 72.2926 29ZM76.5948 12.5613C76.0875 12.5613 75.6485 12.4065 75.2778 12.0968C74.9071 11.7699 74.7217 11.3742 74.7217 10.9097C74.7217 10.4452 74.9071 10.0581 75.2778 9.74839C75.6485 9.43871 76.0875 9.28387 76.5948 9.28387C77.1021 9.28387 77.5411 9.43871 77.9118 9.74839C78.2825 10.0581 78.4678 10.4452 78.4678 10.9097C78.4678 11.3742 78.2825 11.7699 77.9118 12.0968C77.5411 12.4065 77.1021 12.5613 76.5948 12.5613Z" fill="white"/>
<path d="M90.412 29.3613C89.0853 29.3613 87.8854 29.1118 86.8122 28.6129C85.7587 28.114 84.9197 27.357 84.2953 26.3419C83.671 25.3097 83.3588 23.985 83.3588 22.3677C83.3588 20.7505 83.671 19.4258 84.2953 18.3936C84.9197 17.3613 85.7587 16.5957 86.8122 16.0968C87.8854 15.5979 89.095 15.3484 90.4413 15.3484C91.7876 15.3484 92.9875 15.5979 94.0411 16.0968C95.0947 16.5957 95.9239 17.3613 96.5288 18.3936C97.1531 19.4258 97.4653 20.7505 97.4653 22.3677C97.4653 23.985 97.1531 25.3097 96.5288 26.3419C95.9239 27.357 95.0849 28.114 94.0118 28.6129C92.9582 29.1118 91.7583 29.3613 90.412 29.3613ZM90.4413 28.7419C91.612 28.7419 92.568 28.2344 93.3094 27.2194C94.0704 26.2043 94.4508 24.5871 94.4508 22.3677C94.4508 20.1484 94.0704 18.5312 93.3094 17.5161C92.568 16.4839 91.612 15.9677 90.4413 15.9677C89.2511 15.9677 88.2756 16.4839 87.5146 17.5161C86.7732 18.5312 86.4025 20.1484 86.4025 22.3677C86.4025 24.5871 86.7732 26.2043 87.5146 27.2194C88.2756 28.2344 89.2511 28.7419 90.4413 28.7419Z" fill="white"/>
<path d="M100.379 29V28.3806C101.257 28.3462 101.911 28.2774 102.34 28.1742C102.789 28.0538 103.082 27.8387 103.218 27.529C103.374 27.2194 103.452 26.7634 103.452 26.1613V13.5677C103.452 12.9484 103.374 12.4925 103.218 12.2C103.082 11.8903 102.789 11.6753 102.34 11.5548C101.911 11.4344 101.257 11.3656 100.379 11.3484V10.729C100.77 10.7462 101.335 10.7634 102.077 10.7806C102.818 10.7806 103.696 10.7806 104.711 10.7806C105.745 10.7806 106.691 10.772 107.55 10.7548C108.428 10.7376 109.062 10.729 109.452 10.729C111.52 10.729 113.13 11.0989 114.281 11.8387C115.452 12.5613 116.037 13.585 116.037 14.9097C116.037 16.0452 115.549 17 114.574 17.7742C113.618 18.5484 112.281 19.0817 110.564 19.3742V19.4C112.906 19.5548 114.671 20.0194 115.861 20.7936C117.052 21.5505 117.647 22.6 117.647 23.9419C117.647 25.4903 116.974 26.7204 115.627 27.6323C114.281 28.5441 112.447 29 110.125 29C109.813 29 109.394 28.9914 108.867 28.9742C108.359 28.957 107.764 28.9484 107.081 28.9484C106.399 28.9312 105.628 28.9226 104.769 28.9226C103.716 28.9226 102.809 28.9312 102.048 28.9484C101.306 28.9484 100.75 28.9656 100.379 29ZM108.779 28.329C110.671 28.329 112.096 27.9591 113.052 27.2194C114.008 26.4624 114.486 25.3355 114.486 23.8387C114.486 22.4968 114.037 21.4903 113.14 20.8194C112.242 20.1484 110.886 19.8129 109.072 19.8129H105.794V19.2194H108.516C109.998 19.2194 111.12 18.8839 111.881 18.2129C112.642 17.5247 113.023 16.5183 113.023 15.1936C113.023 13.886 112.671 12.9226 111.969 12.3032C111.267 11.6667 110.184 11.3484 108.72 11.3484L106.408 11.3742V26.1613C106.408 26.7634 106.467 27.2194 106.584 27.529C106.701 27.8387 106.925 28.0538 107.257 28.1742C107.608 28.2774 108.116 28.329 108.779 28.329Z" fill="white"/>
<path d="M128.016 29.3613C126.65 29.3613 125.45 29.0774 124.416 28.5097C123.382 27.9419 122.572 27.1333 121.987 26.0839C121.421 25.0344 121.138 23.8043 121.138 22.3936C121.138 20.9656 121.421 19.7269 121.987 18.6774C122.572 17.6108 123.391 16.7936 124.445 16.2258C125.518 15.6409 126.796 15.3484 128.279 15.3484C129.508 15.3484 130.571 15.5634 131.469 15.9936C132.386 16.4065 133.088 17.0602 133.576 17.9548C134.064 18.8323 134.298 19.9591 134.279 21.3355H123.04L123.011 20.7161H131.352C131.371 19.8215 131.264 19.0215 131.03 18.3161C130.815 17.5936 130.464 17.0258 129.976 16.6129C129.489 16.1828 128.864 15.9677 128.103 15.9677C127.147 15.9677 126.289 16.3634 125.528 17.1548C124.786 17.9462 124.347 19.185 124.211 20.871L124.24 20.9226C124.221 21.129 124.201 21.3441 124.182 21.5677C124.182 21.7914 124.182 22.0151 124.182 22.2387C124.182 24.1484 124.591 25.6366 125.411 26.7032C126.25 27.7699 127.44 28.3032 128.981 28.3032C129.957 28.3032 130.854 28.071 131.674 27.6065C132.493 27.1419 133.147 26.428 133.635 25.4645L134.279 25.8C133.791 26.9183 132.991 27.7957 131.879 28.4323C130.786 29.0516 129.498 29.3613 128.016 29.3613Z" fill="white"/>
<path d="M136.553 29V28.3806C137.626 28.3462 138.377 28.2086 138.807 27.9677C139.236 27.7097 139.451 27.228 139.451 26.5226V11.9677C139.451 11.1763 139.246 10.6086 138.836 10.2645C138.426 9.92043 137.665 9.73119 136.553 9.69678V9.05162C136.924 9.06882 137.295 9.08603 137.665 9.10323C138.056 9.12043 138.436 9.12904 138.807 9.12904C139.451 9.12904 140.065 9.10323 140.65 9.05162C141.255 8.9828 141.802 8.88818 142.289 8.76775V26.5226C142.289 27.228 142.504 27.7097 142.933 27.9677C143.382 28.2086 144.133 28.3462 145.187 28.3806V29C144.914 28.9828 144.543 28.9742 144.075 28.9742C143.606 28.957 143.089 28.9398 142.524 28.9226C141.977 28.9054 141.431 28.8968 140.885 28.8968C140.065 28.8968 139.236 28.914 138.397 28.9484C137.577 28.9656 136.963 28.9828 136.553 29Z" fill="white"/>
<path d="M146.76 29V28.3806C147.833 28.3462 148.584 28.2086 149.013 27.9677C149.443 27.7097 149.657 27.228 149.657 26.5226V11.9677C149.657 11.1763 149.452 10.6086 149.043 10.2645C148.633 9.92043 147.872 9.73119 146.76 9.69678V9.05162C147.131 9.06882 147.501 9.08603 147.872 9.10323C148.262 9.12043 148.643 9.12904 149.013 9.12904C149.657 9.12904 150.272 9.10323 150.857 9.05162C151.462 8.9828 152.008 8.88818 152.496 8.76775V26.5226C152.496 27.228 152.711 27.7097 153.14 27.9677C153.589 28.2086 154.34 28.3462 155.394 28.3806V29C155.12 28.9828 154.75 28.9742 154.281 28.9742C153.813 28.957 153.296 28.9398 152.73 28.9226C152.184 28.9054 151.638 28.8968 151.091 28.8968C150.272 28.8968 149.443 28.914 148.604 28.9484C147.784 28.9656 147.17 28.9828 146.76 29Z" fill="white"/>
<defs>
<filter id="filter0_dd_0_1" x="0" y="0" width="38" height="38" filterUnits="userSpaceOnUse" color-interpolation-filters="sRGB">
<feFlood flood-opacity="0" result="BackgroundImageFix"/>
<feColorMatrix in="SourceAlpha" type="matrix" values="0 0 0 0 0 0 0 0 0 0 0 0 0 0 0 0 0 0 127 0" result="hardAlpha"/>
<feOffset dy="1"/>
<feGaussianBlur stdDeviation="1"/>
<feColorMatrix type="matrix" values="0 0 0 0 0.0627451 0 0 0 0 0.0941176 0 0 0 0 0.156863 0 0 0 0.06 0"/>
<feBlend mode="normal" in2="BackgroundImageFix" result="effect1_dropShadow_0_1"/>
<feColorMatrix in="SourceAlpha" type="matrix" values="0 0 0 0 0 0 0 0 0 0 0 0 0 0 0 0 0 0 127 0" result="hardAlpha"/>
<feOffset dy="1"/>
<feGaussianBlur stdDeviation="1.5"/>
<feColorMatrix type="matrix" values="0 0 0 0 0.0627451 0 0 0 0 0.0941176 0 0 0 0 0.156863 0 0 0 0.1 0"/>
<feBlend mode="normal" in2="effect1_dropShadow_0_1" result="effect2_dropShadow_0_1"/>
<feBlend mode="normal" in="SourceGraphic" in2="effect2_dropShadow_0_1" result="shape"/>
</filter>
<linearGradient id="paint0_linear_0_1" x1="19" y1="2" x2="19" y2="34" gradientUnits="userSpaceOnUse">
<stop stop-color="white"/>
<stop offset="1" stop-color="#D0D5DD"/>
</linearGradient>
<linearGradient id="paint1_linear_0_1" x1="10.1989" y1="24.2137" x2="27.8347" y2="6.57788" gradientUnits="userSpaceOnUse">
<stop stop-color="#0076C1"/>
<stop offset="0.0737" stop-color="#0B82C6"/>
<stop offset="0.2766" stop-color="#269ED3"/>
<stop offset="0.4546" stop-color="#36AFDA"/>
<stop offset="0.587" stop-color="#3CB5DD"/>
</linearGradient>
<linearGradient id="paint2_linear_0_1" x1="10.1388" y1="24.2537" x2="27.8274" y2="6.56509" gradientUnits="userSpaceOnUse">
<stop stop-color="#00A482"/>
<stop offset="1" stop-color="#79DD83"/>
</linearGradient>
<linearGradient id="paint3_linear_0_1" x1="24.8608" y1="13.5072" x2="28.5288" y2="10.1131" gradientUnits="userSpaceOnUse">
<stop stop-color="#00A482"/>
<stop offset="1" stop-color="#79DD83"/>
</linearGradient>
</defs>
</svg>
